<?xml version="1.0" encoding="UTF-8"?>
<svg xmlns="http://www.w3.org/2000/svg" xmlns:xlink="http://www.w3.org/1999/xlink" width="20pt" height="20pt" viewBox="0 0 20 20" version="1.1">
<g id="surface1">
<path style=" stroke:none;fill-rule:nonzero;fill:rgb(32.941176%,45.882353%,50.196078%);fill-opacity:1;" d="M 15.59375 17.300781 L 0.253906 17.300781 L 0.253906 6.792969 L 1.757812 5.832031 C 1.878906 5.761719 2.03125 5.757812 2.15625 5.824219 L 3.777344 6.683594 C 3.902344 6.746094 4.054688 6.742188 4.175781 6.667969 L 5.453125 5.867188 L 5.527344 5.800781 Z M 15.59375 17.300781 "/>
<path style=" stroke:none;fill-rule:nonzero;fill:rgb(69.019608%,82.745098%,94.117647%);fill-opacity:1;" d="M 5.527344 5.800781 L 5.453125 5.867188 L 4.175781 6.667969 C 4.054688 6.742188 3.902344 6.75 3.777344 6.683594 L 2.15625 5.824219 C 2.03125 5.757812 1.878906 5.761719 1.757812 5.832031 L 0.253906 6.792969 L 0.253906 0.644531 C 0.253906 0.367188 0.660156 0.246094 0.859375 0.464844 L 2.628906 2.484375 C 2.628906 2.484375 2.671875 2.539062 2.757812 2.632812 C 2.773438 2.652344 2.789062 2.667969 2.808594 2.683594 Z M 5.527344 5.800781 "/>
<path style=" stroke:none;fill-rule:nonzero;fill:rgb(81.960784%,83.137255%,81.960784%);fill-opacity:1;" d="M 19.480469 14.46875 C 19.480469 15.847656 18.265625 16.960938 16.761719 16.960938 L 15.160156 16.960938 L 5.09375 5.460938 L 2.371094 2.34375 C 3.652344 3.640625 5.386719 4.394531 7.207031 4.445312 C 7.535156 4.453125 7.863281 4.429688 8.1875 4.367188 C 9.359375 4.15625 9.78125 4.773438 10.132812 5.335938 L 10.136719 5.335938 C 10.152344 5.332031 10.167969 5.332031 10.1875 5.335938 C 10.203125 5.332031 10.222656 5.332031 10.242188 5.332031 C 11.488281 5.296875 12.597656 6.128906 12.910156 7.335938 C 12.984375 7.328125 13.0625 7.324219 13.140625 7.324219 C 14.195312 7.28125 15.085938 8.097656 15.132812 9.152344 C 15.132812 9.3125 15.109375 9.472656 15.0625 9.628906 C 15.949219 9.90625 16.5625 10.71875 16.582031 11.644531 C 16.582031 11.761719 16.570312 11.875 16.550781 11.988281 C 16.621094 11.980469 16.691406 11.980469 16.761719 11.980469 C 18.265625 11.980469 19.480469 13.09375 19.480469 14.46875 Z M 19.480469 14.46875 "/>
<path style=" stroke:none;fill-rule:nonzero;fill:rgb(36.862745%,37.254902%,38.431373%);fill-opacity:1;" d="M 19.660156 18.316406 L 19.660156 19.503906 C 19.660156 19.597656 19.585938 19.671875 19.492188 19.671875 L 0.167969 19.671875 C 0.0742188 19.671875 0 19.597656 0 19.507812 L 0 18.316406 Z M 19.660156 18.316406 "/>
<path style=" stroke:none;fill-rule:nonzero;fill:rgb(64.705882%,64.705882%,64.313725%);fill-opacity:1;" d="M 19.660156 17.128906 L 19.660156 18.316406 L 0 18.316406 L 0 16.960938 L 19.496094 16.960938 C 19.585938 16.960938 19.660156 17.035156 19.660156 17.128906 Z M 19.660156 17.128906 "/>
<path style=" stroke:none;fill-rule:nonzero;fill:rgb(64.705882%,64.705882%,64.313725%);fill-opacity:1;" d="M 17.101562 11.644531 C 17.082031 10.679688 16.511719 9.816406 15.632812 9.421875 C 15.644531 9.332031 15.652344 9.242188 15.652344 9.148438 C 15.601562 7.917969 14.574219 6.953125 13.34375 6.984375 C 12.902344 5.792969 11.765625 4.996094 10.496094 4.992188 C 10.078125 4.203125 9.167969 3.804688 8.304688 4.035156 C 8.003906 4.089844 7.699219 4.113281 7.390625 4.109375 C 5.597656 4.050781 3.902344 3.28125 2.671875 1.972656 L 2.628906 1.921875 C 2.609375 1.90625 2.59375 1.890625 2.574219 1.878906 C 2.558594 1.867188 2.542969 1.851562 2.527344 1.84375 C 2.5 1.832031 2.476562 1.824219 2.449219 1.820312 C 2.433594 1.816406 2.417969 1.8125 2.402344 1.808594 C 2.375 1.808594 2.347656 1.808594 2.320312 1.816406 C 2.304688 1.816406 2.289062 1.820312 2.273438 1.820312 C 2.246094 1.832031 2.222656 1.84375 2.199219 1.859375 C 2.1875 1.867188 2.171875 1.875 2.15625 1.882812 L 2.15625 1.886719 C 2.15625 1.886719 2.152344 1.886719 2.148438 1.890625 C 2.132812 1.90625 2.117188 1.925781 2.105469 1.945312 C 2.09375 1.960938 2.082031 1.976562 2.070312 1.992188 C 2.0625 2.011719 2.054688 2.035156 2.050781 2.058594 C 2.046875 2.078125 2.039062 2.097656 2.035156 2.117188 C 2.035156 2.136719 2.039062 2.160156 2.042969 2.179688 C 2.042969 2.203125 2.046875 2.222656 2.050781 2.246094 C 2.058594 2.265625 2.070312 2.285156 2.082031 2.300781 C 2.089844 2.324219 2.101562 2.339844 2.113281 2.359375 C 2.117188 2.367188 2.148438 2.402344 2.1875 2.445312 L 15.085938 17.1875 C 15.085938 17.1875 15.089844 17.1875 15.09375 17.191406 C 15.117188 17.214844 15.140625 17.234375 15.167969 17.25 C 15.179688 17.257812 15.195312 17.265625 15.207031 17.273438 C 15.25 17.28125 15.292969 17.292969 15.339844 17.300781 L 16.941406 17.300781 C 18.628906 17.300781 20 16.03125 20 14.46875 C 20 12.957031 18.714844 11.71875 17.101562 11.644531 Z M 16.941406 16.621094 L 15.492188 16.621094 L 4.585938 4.15625 C 5.464844 4.554688 6.414062 4.769531 7.378906 4.785156 C 7.730469 4.792969 8.082031 4.765625 8.425781 4.703125 C 9.101562 4.582031 9.449219 4.773438 9.710938 5.070312 C 9.605469 5.09375 9.507812 5.117188 9.410156 5.152344 C 9.25 5.203125 9.152344 5.359375 9.179688 5.527344 C 9.207031 5.691406 9.347656 5.8125 9.515625 5.8125 C 9.550781 5.8125 9.585938 5.804688 9.621094 5.796875 C 9.878906 5.710938 10.148438 5.667969 10.417969 5.671875 L 10.421875 5.671875 C 11.378906 5.648438 12.257812 6.203125 12.652344 7.078125 C 12.417969 7.140625 12.195312 7.242188 11.988281 7.371094 C 11.886719 7.4375 11.828125 7.554688 11.832031 7.675781 C 11.839844 7.796875 11.910156 7.90625 12.015625 7.960938 C 12.125 8.015625 12.257812 8.007812 12.359375 7.941406 C 12.644531 7.757812 12.980469 7.660156 13.320312 7.664062 C 14.1875 7.625 14.921875 8.285156 14.972656 9.152344 C 14.972656 9.179688 14.96875 9.203125 14.96875 9.230469 C 14.875 9.222656 14.785156 9.214844 14.695312 9.214844 C 14.507812 9.214844 14.355469 9.367188 14.355469 9.554688 C 14.355469 9.742188 14.507812 9.894531 14.695312 9.894531 C 14.84375 9.894531 14.992188 9.914062 15.132812 9.949219 C 15.878906 10.183594 16.398438 10.863281 16.421875 11.644531 C 16.421875 11.65625 16.417969 11.667969 16.417969 11.679688 C 16.253906 11.707031 16.089844 11.746094 15.933594 11.796875 C 15.773438 11.847656 15.675781 12.007812 15.703125 12.171875 C 15.726562 12.335938 15.871094 12.457031 16.035156 12.457031 C 16.074219 12.457031 16.109375 12.453125 16.140625 12.441406 C 16.386719 12.363281 16.644531 12.320312 16.902344 12.320312 C 16.917969 12.320312 16.929688 12.316406 16.941406 12.316406 C 18.253906 12.316406 19.320312 13.28125 19.320312 14.46875 C 19.320312 15.65625 18.253906 16.621094 16.941406 16.621094 Z M 16.941406 16.621094 "/>
</g>
</svg>
