<?xml version="1.0" encoding="UTF-8"?>
<svg xmlns="http://www.w3.org/2000/svg" xmlns:xlink="http://www.w3.org/1999/xlink" width="20pt" height="20pt" viewBox="0 0 20 20" version="1.1">
<g id="surface1">
<path style=" stroke:none;fill-rule:nonzero;fill:rgb(87.45098%,30.196078%,37.647059%);fill-opacity:1;" d="M 13.714844 0.339844 L 17.785156 0.339844 C 17.96875 0.339844 18.121094 0.492188 18.121094 0.679688 L 18.121094 3.390625 L 13.375 3.390625 L 13.375 0.679688 C 13.375 0.492188 13.527344 0.339844 13.714844 0.339844 Z M 13.714844 0.339844 "/>
<path style=" stroke:none;fill-rule:nonzero;fill:rgb(50.196078%,18.431373%,20.392157%);fill-opacity:1;" d="M 15.070312 2.035156 L 14.734375 2.035156 C 14.546875 2.035156 14.394531 1.882812 14.394531 1.695312 C 14.394531 1.507812 14.546875 1.355469 14.734375 1.355469 L 15.070312 1.355469 C 15.257812 1.355469 15.410156 1.507812 15.410156 1.695312 C 15.410156 1.882812 15.257812 2.035156 15.070312 2.035156 Z M 15.070312 2.035156 "/>
<path style=" stroke:none;fill-rule:nonzero;fill:rgb(50.196078%,18.431373%,20.392157%);fill-opacity:1;" d="M 16.765625 2.035156 L 16.425781 2.035156 C 16.238281 2.035156 16.089844 1.882812 16.089844 1.695312 C 16.089844 1.507812 16.242188 1.355469 16.425781 1.355469 L 16.765625 1.355469 C 16.953125 1.355469 17.105469 1.507812 17.105469 1.695312 C 17.105469 1.882812 16.953125 2.035156 16.765625 2.035156 Z M 16.765625 2.035156 "/>
<path style=" stroke:none;fill-rule:nonzero;fill:rgb(24.705882%,36.078431%,42.352941%);fill-opacity:1;" d="M 2.527344 3.050781 C 2.34375 3.050781 2.191406 2.898438 2.191406 2.710938 L 2.191406 0.339844 C 2.191406 0.152344 2.34375 0 2.527344 0 C 2.714844 0 2.867188 0.152344 2.867188 0.339844 L 2.867188 2.710938 C 2.867188 2.898438 2.714844 3.050781 2.527344 3.050781 Z M 2.527344 3.050781 "/>
<path style=" stroke:none;fill-rule:nonzero;fill:rgb(24.705882%,36.078431%,42.352941%);fill-opacity:1;" d="M 4.5625 3.050781 C 4.375 3.050781 4.222656 2.898438 4.222656 2.710938 L 4.222656 1.695312 C 4.222656 1.507812 4.375 1.355469 4.5625 1.355469 C 4.75 1.355469 4.902344 1.507812 4.902344 1.695312 L 4.902344 2.710938 C 4.902344 2.898438 4.75 3.050781 4.5625 3.050781 Z M 4.5625 3.050781 "/>
<path style=" stroke:none;fill-rule:nonzero;fill:rgb(60.784314%,78.431373%,76.078431%);fill-opacity:1;" d="M 5.917969 3.09375 L 5.917969 14.914062 L 1.171875 14.914062 L 1.171875 3.09375 C 1.164062 2.894531 1.3125 2.726562 1.511719 2.710938 L 5.578125 2.710938 C 5.777344 2.726562 5.929688 2.894531 5.917969 3.09375 Z M 5.917969 3.09375 "/>
<path style=" stroke:none;fill-rule:nonzero;fill:rgb(84.313725%,36.862745%,44.705882%);fill-opacity:1;" d="M 12.699219 3.050781 L 18.800781 3.050781 C 18.988281 3.050781 19.140625 3.203125 19.140625 3.390625 L 19.140625 14.578125 L 12.359375 14.578125 L 12.359375 3.390625 C 12.359375 3.203125 12.511719 3.050781 12.699219 3.050781 Z M 12.699219 3.050781 "/>
<path style=" stroke:none;fill-rule:nonzero;fill:rgb(50.196078%,27.058824%,21.568627%);fill-opacity:1;" d="M 8.59375 13.933594 L 8.460938 15.253906 L 0.15625 15.253906 L 0.15625 13.730469 C 0.15625 13.636719 0.230469 13.558594 0.324219 13.558594 L 8.257812 13.558594 C 8.351562 13.558594 8.445312 13.601562 8.507812 13.671875 C 8.570312 13.742188 8.601562 13.835938 8.59375 13.933594 Z M 8.59375 13.933594 "/>
<path style=" stroke:none;fill-rule:nonzero;fill:rgb(50.196078%,27.058824%,21.568627%);fill-opacity:1;" d="M 10.214844 17.257812 C 10.1875 17.605469 10.160156 17.957031 10.128906 18.304688 L 0.15625 18.304688 L 0.15625 15.253906 L 8.460938 15.253906 L 8.335938 16.507812 C 8.324219 16.613281 8.363281 16.71875 8.441406 16.789062 C 8.519531 16.863281 8.625 16.894531 8.730469 16.878906 L 9.839844 16.691406 C 9.972656 16.667969 10.105469 16.726562 10.179688 16.835938 C 10.242188 16.96875 10.253906 17.117188 10.214844 17.257812 Z M 10.214844 17.257812 "/>
<path style=" stroke:none;fill-rule:nonzero;fill:rgb(50.196078%,27.058824%,21.568627%);fill-opacity:1;" d="M 10.128906 18.304688 C 10.082031 18.867188 10.035156 19.433594 9.988281 20 L 0.324219 20 C 0.230469 20 0.15625 19.925781 0.15625 19.832031 L 0.15625 18.304688 Z M 10.128906 18.304688 "/>
<path style=" stroke:none;fill-rule:nonzero;fill:rgb(50.196078%,27.058824%,21.568627%);fill-opacity:1;" d="M 19.816406 18.304688 L 19.816406 19.832031 C 19.816406 19.925781 19.742188 20 19.648438 20 L 9.988281 20 L 11.054688 18.304688 Z M 19.816406 18.304688 "/>
<path style=" stroke:none;fill-rule:nonzero;fill:rgb(50.196078%,27.058824%,21.568627%);fill-opacity:1;" d="M 19.816406 15.253906 L 19.816406 18.304688 L 11.054688 18.304688 L 12.644531 15.777344 C 12.710938 15.671875 12.714844 15.539062 12.65625 15.429688 C 12.597656 15.320312 12.484375 15.253906 12.359375 15.253906 Z M 19.816406 15.253906 "/>
<path style=" stroke:none;fill-rule:nonzero;fill:rgb(50.196078%,27.058824%,21.568627%);fill-opacity:1;" d="M 19.816406 13.730469 L 19.816406 15.253906 L 11.34375 15.253906 C 11.15625 15.253906 11.003906 15.101562 11.003906 14.914062 L 11.003906 13.898438 C 11.003906 13.710938 11.15625 13.558594 11.34375 13.558594 L 19.648438 13.558594 C 19.742188 13.558594 19.816406 13.636719 19.816406 13.730469 Z M 19.816406 13.730469 "/>
<path style=" stroke:none;fill-rule:nonzero;fill:rgb(49.803922%,43.137255%,36.470588%);fill-opacity:1;" d="M 10.214844 17.257812 C 10.1875 17.605469 10.160156 17.957031 10.128906 18.304688 L 0.15625 18.304688 L 0.15625 15.253906 L 8.460938 15.253906 L 8.335938 16.507812 C 8.324219 16.613281 8.363281 16.71875 8.441406 16.789062 C 8.519531 16.863281 8.625 16.894531 8.730469 16.878906 L 9.839844 16.691406 C 9.972656 16.667969 10.105469 16.726562 10.179688 16.835938 C 10.242188 16.96875 10.253906 17.117188 10.214844 17.257812 Z M 10.214844 17.257812 "/>
<path style=" stroke:none;fill-rule:nonzero;fill:rgb(49.803922%,43.137255%,36.470588%);fill-opacity:1;" d="M 19.816406 15.253906 L 19.816406 18.304688 L 11.054688 18.304688 L 12.644531 15.777344 C 12.710938 15.671875 12.714844 15.539062 12.65625 15.429688 C 12.597656 15.320312 12.484375 15.253906 12.359375 15.253906 Z M 19.816406 15.253906 "/>
<path style=" stroke:none;fill-rule:nonzero;fill:rgb(24.705882%,36.078431%,42.352941%);fill-opacity:1;" d="M 2.867188 4.40625 L 2.527344 4.40625 C 2.34375 4.40625 2.191406 4.253906 2.191406 4.066406 C 2.191406 3.878906 2.34375 3.730469 2.527344 3.730469 L 2.867188 3.730469 C 3.054688 3.730469 3.207031 3.878906 3.207031 4.066406 C 3.207031 4.253906 3.054688 4.40625 2.867188 4.40625 Z M 2.867188 4.40625 "/>
<path style=" stroke:none;fill-rule:nonzero;fill:rgb(24.705882%,36.078431%,42.352941%);fill-opacity:1;" d="M 4.5625 4.40625 L 4.222656 4.40625 C 4.035156 4.40625 3.886719 4.253906 3.886719 4.066406 C 3.886719 3.878906 4.035156 3.730469 4.222656 3.730469 L 4.5625 3.730469 C 4.75 3.730469 4.902344 3.878906 4.902344 4.066406 C 4.902344 4.253906 4.75 4.40625 4.5625 4.40625 Z M 4.5625 4.40625 "/>
<path style=" stroke:none;fill-rule:nonzero;fill:rgb(24.705882%,36.078431%,42.352941%);fill-opacity:1;" d="M 2.867188 5.761719 L 2.527344 5.761719 C 2.34375 5.761719 2.191406 5.609375 2.191406 5.421875 C 2.191406 5.238281 2.34375 5.085938 2.527344 5.085938 L 2.867188 5.085938 C 3.054688 5.085938 3.207031 5.238281 3.207031 5.421875 C 3.207031 5.609375 3.054688 5.761719 2.867188 5.761719 Z M 2.867188 5.761719 "/>
<path style=" stroke:none;fill-rule:nonzero;fill:rgb(24.705882%,36.078431%,42.352941%);fill-opacity:1;" d="M 4.5625 5.761719 L 4.222656 5.761719 C 4.035156 5.761719 3.886719 5.609375 3.886719 5.421875 C 3.886719 5.238281 4.035156 5.085938 4.222656 5.085938 L 4.5625 5.085938 C 4.75 5.085938 4.902344 5.238281 4.902344 5.421875 C 4.902344 5.609375 4.75 5.761719 4.5625 5.761719 Z M 4.5625 5.761719 "/>
<path style=" stroke:none;fill-rule:nonzero;fill:rgb(24.705882%,36.078431%,42.352941%);fill-opacity:1;" d="M 2.867188 7.117188 L 2.527344 7.117188 C 2.34375 7.117188 2.191406 6.96875 2.191406 6.78125 C 2.191406 6.59375 2.34375 6.441406 2.527344 6.441406 L 2.867188 6.441406 C 3.054688 6.441406 3.207031 6.59375 3.207031 6.78125 C 3.207031 6.96875 3.054688 7.117188 2.867188 7.117188 Z M 2.867188 7.117188 "/>
<path style=" stroke:none;fill-rule:nonzero;fill:rgb(24.705882%,36.078431%,42.352941%);fill-opacity:1;" d="M 4.5625 7.117188 L 4.222656 7.117188 C 4.035156 7.117188 3.886719 6.96875 3.886719 6.78125 C 3.886719 6.59375 4.035156 6.441406 4.222656 6.441406 L 4.5625 6.441406 C 4.75 6.441406 4.902344 6.59375 4.902344 6.78125 C 4.902344 6.96875 4.75 7.117188 4.5625 7.117188 Z M 4.5625 7.117188 "/>
<path style=" stroke:none;fill-rule:nonzero;fill:rgb(24.705882%,36.078431%,42.352941%);fill-opacity:1;" d="M 2.867188 8.472656 L 2.527344 8.472656 C 2.34375 8.472656 2.191406 8.324219 2.191406 8.136719 C 2.191406 7.949219 2.34375 7.796875 2.527344 7.796875 L 2.867188 7.796875 C 3.054688 7.796875 3.207031 7.949219 3.207031 8.136719 C 3.207031 8.324219 3.054688 8.472656 2.867188 8.472656 Z M 2.867188 8.472656 "/>
<path style=" stroke:none;fill-rule:nonzero;fill:rgb(24.705882%,36.078431%,42.352941%);fill-opacity:1;" d="M 4.5625 8.472656 L 4.222656 8.472656 C 4.035156 8.472656 3.886719 8.324219 3.886719 8.136719 C 3.886719 7.949219 4.035156 7.796875 4.222656 7.796875 L 4.5625 7.796875 C 4.75 7.796875 4.902344 7.949219 4.902344 8.136719 C 4.902344 8.324219 4.75 8.472656 4.5625 8.472656 Z M 4.5625 8.472656 "/>
<path style=" stroke:none;fill-rule:nonzero;fill:rgb(24.705882%,36.078431%,42.352941%);fill-opacity:1;" d="M 2.867188 9.832031 L 2.527344 9.832031 C 2.34375 9.832031 2.191406 9.679688 2.191406 9.492188 C 2.191406 9.304688 2.34375 9.152344 2.527344 9.152344 L 2.867188 9.152344 C 3.054688 9.152344 3.207031 9.304688 3.207031 9.492188 C 3.207031 9.679688 3.054688 9.832031 2.867188 9.832031 Z M 2.867188 9.832031 "/>
<path style=" stroke:none;fill-rule:nonzero;fill:rgb(24.705882%,36.078431%,42.352941%);fill-opacity:1;" d="M 4.5625 9.832031 L 4.222656 9.832031 C 4.035156 9.832031 3.886719 9.679688 3.886719 9.492188 C 3.886719 9.304688 4.035156 9.152344 4.222656 9.152344 L 4.5625 9.152344 C 4.75 9.152344 4.902344 9.304688 4.902344 9.492188 C 4.902344 9.679688 4.75 9.832031 4.5625 9.832031 Z M 4.5625 9.832031 "/>
<path style=" stroke:none;fill-rule:nonzero;fill:rgb(24.705882%,36.078431%,42.352941%);fill-opacity:1;" d="M 2.867188 11.1875 L 2.527344 11.1875 C 2.34375 11.1875 2.191406 11.035156 2.191406 10.847656 C 2.191406 10.660156 2.34375 10.507812 2.527344 10.507812 L 2.867188 10.507812 C 3.054688 10.507812 3.207031 10.660156 3.207031 10.847656 C 3.207031 11.035156 3.054688 11.1875 2.867188 11.1875 Z M 2.867188 11.1875 "/>
<path style=" stroke:none;fill-rule:nonzero;fill:rgb(24.705882%,36.078431%,42.352941%);fill-opacity:1;" d="M 4.5625 11.1875 L 4.222656 11.1875 C 4.035156 11.1875 3.886719 11.035156 3.886719 10.847656 C 3.886719 10.660156 4.035156 10.507812 4.222656 10.507812 L 4.5625 10.507812 C 4.75 10.507812 4.902344 10.660156 4.902344 10.847656 C 4.902344 11.035156 4.75 11.1875 4.5625 11.1875 Z M 4.5625 11.1875 "/>
<path style=" stroke:none;fill-rule:nonzero;fill:rgb(24.705882%,36.078431%,42.352941%);fill-opacity:1;" d="M 2.867188 12.542969 L 2.527344 12.542969 C 2.34375 12.542969 2.191406 12.390625 2.191406 12.203125 C 2.191406 12.015625 2.34375 11.863281 2.527344 11.863281 L 2.867188 11.863281 C 3.054688 11.863281 3.207031 12.015625 3.207031 12.203125 C 3.207031 12.390625 3.054688 12.542969 2.867188 12.542969 Z M 2.867188 12.542969 "/>
<path style=" stroke:none;fill-rule:nonzero;fill:rgb(24.705882%,36.078431%,42.352941%);fill-opacity:1;" d="M 4.5625 12.542969 L 4.222656 12.542969 C 4.035156 12.542969 3.886719 12.390625 3.886719 12.203125 C 3.886719 12.015625 4.035156 11.863281 4.222656 11.863281 L 4.5625 11.863281 C 4.75 11.863281 4.902344 12.015625 4.902344 12.203125 C 4.902344 12.390625 4.75 12.542969 4.5625 12.542969 Z M 4.5625 12.542969 "/>
<path style=" stroke:none;fill-rule:nonzero;fill:rgb(50.196078%,18.431373%,20.392157%);fill-opacity:1;" d="M 15.070312 4.746094 L 13.714844 4.746094 C 13.527344 4.746094 13.375 4.59375 13.375 4.40625 C 13.375 4.21875 13.527344 4.066406 13.714844 4.066406 L 15.070312 4.066406 C 15.257812 4.066406 15.410156 4.21875 15.410156 4.40625 C 15.410156 4.59375 15.257812 4.746094 15.070312 4.746094 Z M 15.070312 4.746094 "/>
<path style=" stroke:none;fill-rule:nonzero;fill:rgb(50.196078%,18.431373%,20.392157%);fill-opacity:1;" d="M 17.785156 6.101562 L 13.714844 6.101562 C 13.527344 6.101562 13.375 5.949219 13.375 5.761719 C 13.375 5.574219 13.527344 5.421875 13.714844 5.421875 L 17.785156 5.421875 C 17.96875 5.421875 18.121094 5.574219 18.121094 5.761719 C 18.121094 5.949219 17.96875 6.101562 17.785156 6.101562 Z M 17.785156 6.101562 "/>
<path style=" stroke:none;fill-rule:nonzero;fill:rgb(50.196078%,18.431373%,20.392157%);fill-opacity:1;" d="M 17.785156 7.457031 L 13.714844 7.457031 C 13.527344 7.457031 13.375 7.304688 13.375 7.117188 C 13.375 6.929688 13.527344 6.78125 13.714844 6.78125 L 17.785156 6.78125 C 17.96875 6.78125 18.121094 6.929688 18.121094 7.117188 C 18.121094 7.304688 17.96875 7.457031 17.785156 7.457031 Z M 17.785156 7.457031 "/>
<path style=" stroke:none;fill-rule:nonzero;fill:rgb(50.196078%,18.431373%,20.392157%);fill-opacity:1;" d="M 17.785156 8.8125 L 13.714844 8.8125 C 13.527344 8.8125 13.375 8.660156 13.375 8.472656 C 13.375 8.289062 13.527344 8.136719 13.714844 8.136719 L 17.785156 8.136719 C 17.96875 8.136719 18.121094 8.289062 18.121094 8.472656 C 18.121094 8.660156 17.96875 8.8125 17.785156 8.8125 Z M 17.785156 8.8125 "/>
<path style=" stroke:none;fill-rule:nonzero;fill:rgb(50.196078%,18.431373%,20.392157%);fill-opacity:1;" d="M 17.785156 10.167969 L 13.714844 10.167969 C 13.527344 10.167969 13.375 10.019531 13.375 9.832031 C 13.375 9.644531 13.527344 9.492188 13.714844 9.492188 L 17.785156 9.492188 C 17.96875 9.492188 18.121094 9.644531 18.121094 9.832031 C 18.121094 10.019531 17.96875 10.167969 17.785156 10.167969 Z M 17.785156 10.167969 "/>
<path style=" stroke:none;fill-rule:nonzero;fill:rgb(50.196078%,17.647059%,25.098039%);fill-opacity:1;" d="M 14.734375 11.863281 L 14.734375 13.558594 L 16.765625 13.558594 L 16.765625 11.863281 C 16.765625 11.675781 16.613281 11.527344 16.425781 11.527344 L 15.070312 11.527344 C 14.882812 11.527344 14.734375 11.675781 14.734375 11.863281 Z M 14.734375 11.863281 "/>
</g>
</svg>
