<?xml version="1.0" encoding="UTF-8"?>
<svg xmlns="http://www.w3.org/2000/svg" xmlns:xlink="http://www.w3.org/1999/xlink" width="20pt" height="20pt" viewBox="0 0 20 20" version="1.1">
<g id="surface1">
<path style=" stroke:none;fill-rule:nonzero;fill:rgb(94.901961%,61.176471%,12.156863%);fill-opacity:1;" d="M 5.171875 12.796875 C 2.070312 12.796875 0.367188 12.414062 1.722656 9.003906 C 2.933594 5.964844 2.414062 4.867188 1.035156 3.140625 C 1.035156 3.140625 4.136719 3.140625 4.484375 4.175781 C 4.484375 4.175781 4.828125 0.382812 7.242188 0.0390625 C 7.242188 0.0390625 6.550781 2.109375 8.621094 2.796875 C 8.621094 2.796875 9.308594 0.382812 12.757812 0.382812 C 12.757812 0.382812 11.722656 2.453125 12.414062 3.488281 C 12.414062 3.488281 14.289062 4.175781 15.667969 1.417969 C 15.667969 1.417969 17.046875 3.140625 16.359375 5.210938 C 16.359375 5.210938 17.242188 4.175781 18.964844 4.523438 C 18.964844 4.523438 17.644531 6.589844 17.984375 8.316406 C 18.324219 10.015625 18.964844 12.796875 14.828125 12.796875 Z M 5.171875 12.796875 "/>
<path style=" stroke:none;fill-rule:nonzero;fill:rgb(90.196078%,90.588235%,90.980392%);fill-opacity:1;" d="M 8.277344 16.503906 L 5.171875 16.503906 L 5.171875 8.328125 L 10 4.203125 L 14.828125 8.328125 L 14.828125 16.503906 Z M 8.277344 16.503906 "/>
<path style=" stroke:none;fill-rule:nonzero;fill:rgb(24.705882%,36.078431%,42.352941%);fill-opacity:1;" d="M 11.722656 12.453125 L 11.722656 16.589844 L 8.277344 16.589844 L 8.277344 12.453125 C 8.277344 12.074219 8.585938 11.765625 8.964844 11.761719 L 11.035156 11.761719 C 11.414062 11.765625 11.722656 12.074219 11.722656 12.453125 Z M 11.722656 12.453125 "/>
<path style=" stroke:none;fill-rule:nonzero;fill:rgb(24.705882%,36.078431%,42.352941%);fill-opacity:1;" d="M 16.8125 9.574219 C 16.753906 9.644531 16.667969 9.6875 16.578125 9.691406 C 16.488281 9.699219 16.398438 9.671875 16.328125 9.613281 L 14.828125 8.328125 L 10 4.203125 L 5.171875 8.328125 L 3.671875 9.613281 C 3.527344 9.734375 3.308594 9.71875 3.1875 9.574219 C 3.0625 9.429688 3.078125 9.210938 3.222656 9.085938 L 9.601562 3.636719 C 9.828125 3.441406 10.164062 3.441406 10.398438 3.632812 L 16.777344 9.085938 C 16.84375 9.148438 16.886719 9.230469 16.894531 9.324219 C 16.902344 9.414062 16.875 9.503906 16.8125 9.574219 Z M 16.8125 9.574219 "/>
<path style=" stroke:none;fill-rule:nonzero;fill:rgb(18.431373%,65.882353%,80%);fill-opacity:1;" d="M 11.722656 8.660156 C 11.722656 9.613281 10.953125 10.382812 10 10.382812 C 9.046875 10.382812 8.277344 9.613281 8.277344 8.660156 C 8.277344 7.707031 9.046875 6.9375 10 6.9375 C 10.953125 6.9375 11.722656 7.707031 11.722656 8.660156 Z M 11.722656 8.660156 "/>
<path style=" stroke:none;fill-rule:nonzero;fill:rgb(18.431373%,65.882353%,80%);fill-opacity:1;" d="M 9.65625 14.523438 C 9.464844 14.523438 9.308594 14.367188 9.308594 14.175781 L 9.308594 13.832031 C 9.308594 13.640625 9.464844 13.488281 9.65625 13.488281 C 9.84375 13.488281 10 13.640625 10 13.832031 L 10 14.175781 C 10 14.367188 9.84375 14.523438 9.65625 14.523438 Z M 9.65625 14.523438 "/>
<path style=" stroke:none;fill-rule:nonzero;fill:rgb(29.803922%,50.196078%,33.72549%);fill-opacity:1;" d="M 20 16.671875 L 20 19.785156 C 20 19.828125 19.980469 19.871094 19.949219 19.90625 C 19.917969 19.9375 19.871094 19.953125 19.828125 19.953125 L 0.171875 19.953125 C 0.128906 19.953125 0.0820312 19.9375 0.0507812 19.90625 C 0.0195312 19.871094 0 19.828125 0 19.785156 L 0 16.671875 C 0 16.628906 0.0195312 16.585938 0.0507812 16.554688 C 0.0820312 16.519531 0.128906 16.503906 0.171875 16.503906 L 19.828125 16.503906 C 19.871094 16.503906 19.917969 16.519531 19.949219 16.554688 C 19.980469 16.585938 20 16.628906 20 16.671875 Z M 20 16.671875 "/>
<path style=" stroke:none;fill-rule:nonzero;fill:rgb(14.117647%,68.235294%,37.254902%);fill-opacity:1;" d="M 20 16.671875 L 20 18.230469 L 0 18.230469 L 0 16.671875 C 0 16.628906 0.0195312 16.585938 0.0507812 16.554688 C 0.0820312 16.519531 0.128906 16.503906 0.171875 16.503906 L 19.828125 16.503906 C 19.871094 16.503906 19.917969 16.519531 19.949219 16.554688 C 19.980469 16.585938 20 16.628906 20 16.671875 Z M 20 16.671875 "/>
</g>
</svg>
