<?xml version="1.0" encoding="UTF-8"?>
<svg xmlns="http://www.w3.org/2000/svg" xmlns:xlink="http://www.w3.org/1999/xlink" width="20pt" height="20pt" viewBox="0 0 20 20" version="1.1">
<g id="surface1">
<path style=" stroke:none;fill-rule:nonzero;fill:rgb(90.196078%,90.588235%,90.980392%);fill-opacity:1;" d="M 7.152344 13.039062 C 6.875 13.164062 6.570312 13.226562 6.261719 13.21875 C 5.183594 13.21875 4.828125 12.609375 4.222656 12.210938 L 6.742188 5.421875 L 7.578125 3.015625 L 7.578125 3.011719 L 13.421875 0.765625 L 16.445312 6.261719 C 16.453125 6.28125 16.464844 6.296875 16.480469 6.3125 L 14.097656 12.71875 C 13.710938 13.054688 13.214844 13.230469 12.703125 13.21875 C 11.808594 13.21875 11.410156 12.804688 10.960938 12.433594 Z M 7.152344 13.039062 "/>
<path style=" stroke:none;fill-rule:nonzero;fill:rgb(18.431373%,65.882353%,80%);fill-opacity:1;" d="M 19.816406 12.796875 L 19.816406 19.832031 C 19.816406 19.925781 19.742188 20 19.648438 20 L 0.324219 20 C 0.230469 20 0.15625 19.925781 0.15625 19.832031 L 0.15625 12.796875 C 0.160156 12.480469 0.386719 12.207031 0.699219 12.144531 C 1.832031 11.882812 2.136719 10.847656 3.546875 10.847656 C 3.96875 10.835938 4.382812 10.957031 4.734375 11.191406 C 5.335938 11.59375 5.691406 12.203125 6.769531 12.203125 C 7.078125 12.210938 7.382812 12.148438 7.660156 12.019531 C 8.464844 11.652344 8.75 10.847656 9.988281 10.847656 C 10.539062 10.835938 11.070312 11.042969 11.46875 11.417969 C 11.917969 11.785156 12.320312 12.203125 13.210938 12.203125 C 13.722656 12.214844 14.21875 12.035156 14.605469 11.703125 C 15.09375 11.316406 15.484375 10.847656 16.425781 10.847656 C 17.835938 10.847656 18.144531 11.882812 19.273438 12.144531 C 19.585938 12.207031 19.8125 12.480469 19.816406 12.796875 Z M 19.816406 12.796875 "/>
<path style=" stroke:none;fill-rule:nonzero;fill:rgb(69.019608%,82.745098%,94.117647%);fill-opacity:1;" d="M 8.292969 15.253906 C 7.605469 15.257812 6.945312 14.984375 6.464844 14.496094 C 6.101562 14.113281 5.597656 13.898438 5.070312 13.898438 C 4.546875 13.898438 4.042969 14.113281 3.679688 14.496094 C 3.195312 14.984375 2.539062 15.257812 1.851562 15.253906 C 1.664062 15.253906 1.511719 15.101562 1.511719 14.914062 C 1.511719 14.726562 1.664062 14.578125 1.851562 14.578125 C 2.378906 14.578125 2.878906 14.359375 3.242188 13.976562 C 3.726562 13.492188 4.386719 13.21875 5.070312 13.21875 C 5.757812 13.21875 6.414062 13.492188 6.898438 13.976562 C 7.261719 14.359375 7.765625 14.578125 8.292969 14.578125 C 8.480469 14.578125 8.628906 14.726562 8.628906 14.914062 C 8.628906 15.101562 8.480469 15.253906 8.292969 15.253906 Z M 8.292969 15.253906 "/>
<path style=" stroke:none;fill-rule:nonzero;fill:rgb(69.019608%,82.745098%,94.117647%);fill-opacity:1;" d="M 13.039062 18.644531 C 12.351562 18.648438 11.691406 18.375 11.207031 17.886719 C 10.84375 17.503906 10.34375 17.289062 9.816406 17.289062 C 9.289062 17.289062 8.785156 17.503906 8.425781 17.886719 C 7.941406 18.375 7.28125 18.644531 6.597656 18.644531 C 6.410156 18.644531 6.257812 18.492188 6.257812 18.304688 C 6.257812 18.117188 6.410156 17.964844 6.597656 17.964844 C 7.125 17.964844 7.625 17.75 7.988281 17.367188 C 8.472656 16.882812 9.132812 16.609375 9.816406 16.609375 C 10.503906 16.609375 11.160156 16.882812 11.644531 17.367188 C 12.007812 17.75 12.511719 17.964844 13.039062 17.964844 C 13.226562 17.964844 13.375 18.117188 13.375 18.304688 C 13.375 18.492188 13.226562 18.644531 13.039062 18.644531 Z M 13.039062 18.644531 "/>
<path style=" stroke:none;fill-rule:nonzero;fill:rgb(69.019608%,82.745098%,94.117647%);fill-opacity:1;" d="M 18.121094 15.253906 C 17.433594 15.257812 16.777344 14.984375 16.292969 14.496094 C 15.929688 14.113281 15.425781 13.898438 14.898438 13.898438 C 14.375 13.898438 13.871094 14.113281 13.507812 14.496094 C 13.027344 14.984375 12.367188 15.257812 11.683594 15.253906 C 11.496094 15.253906 11.34375 15.101562 11.34375 14.914062 C 11.34375 14.726562 11.496094 14.578125 11.683594 14.578125 C 12.207031 14.574219 12.710938 14.359375 13.070312 13.976562 C 13.554688 13.492188 14.214844 13.21875 14.898438 13.21875 C 15.585938 13.21875 16.246094 13.492188 16.730469 13.976562 C 17.089844 14.359375 17.59375 14.578125 18.121094 14.578125 C 18.308594 14.578125 18.460938 14.726562 18.460938 14.914062 C 18.460938 15.101562 18.308594 15.253906 18.121094 15.253906 Z M 18.121094 15.253906 "/>
<path style=" stroke:none;fill-rule:nonzero;fill:rgb(69.019608%,82.745098%,94.117647%);fill-opacity:1;" d="M 19.816406 4.746094 C 19.816406 5.121094 19.511719 5.421875 19.140625 5.421875 L 16.488281 5.421875 L 15.730469 4.066406 L 19.140625 4.066406 C 19.511719 4.070312 19.8125 4.371094 19.816406 4.746094 Z M 19.816406 4.746094 "/>
<path style=" stroke:none;fill-rule:nonzero;fill:rgb(69.019608%,82.745098%,94.117647%);fill-opacity:1;" d="M 7.660156 2.761719 L 7.664062 2.773438 L 7.578125 3.011719 L 7.578125 3.015625 L 6.742188 5.421875 L 2.527344 5.421875 C 2.15625 5.421875 1.855469 5.117188 1.851562 4.746094 C 1.851562 4.371094 2.15625 4.070312 2.527344 4.066406 L 3.546875 4.066406 C 3.917969 4.066406 4.222656 3.761719 4.222656 3.390625 C 4.222656 3.339844 4.21875 3.292969 4.207031 3.242188 C 4.140625 2.933594 3.863281 2.710938 3.546875 2.710938 L 0.835938 2.710938 C 0.65625 2.710938 0.480469 2.640625 0.355469 2.511719 C 0.226562 2.386719 0.15625 2.214844 0.15625 2.035156 C 0.15625 1.660156 0.460938 1.355469 0.835938 1.355469 L 10.914062 1.355469 L 7.628906 2.683594 Z M 7.660156 2.761719 "/>
<path style=" stroke:none;fill-rule:nonzero;fill:rgb(90.196078%,90.588235%,90.980392%);fill-opacity:1;" d="M 16.488281 5.421875 L 14.210938 1.355469 L 13.714844 0.472656 C 13.695312 0.429688 13.660156 0.398438 13.621094 0.375 L 7.660156 2.761719 L 7.664062 2.773438 L 7.578125 3.011719 L 13.421875 0.765625 L 16.445312 6.261719 C 16.453125 6.28125 16.464844 6.296875 16.480469 6.3125 L 16.628906 5.894531 L 16.722656 5.839844 Z M 16.488281 5.421875 "/>
<path style=" stroke:none;fill-rule:nonzero;fill:rgb(49.803922%,54.901961%,55.294118%);fill-opacity:1;" d="M 12.296875 9.054688 L 11.46875 11.417969 C 11.070312 11.042969 10.539062 10.835938 9.988281 10.847656 C 8.75 10.847656 8.464844 11.652344 7.660156 12.019531 L 9.097656 7.9375 C 9.15625 7.769531 9.28125 7.628906 9.441406 7.550781 C 9.605469 7.472656 9.789062 7.460938 9.960938 7.523438 L 11.882812 8.191406 C 12.050781 8.25 12.191406 8.375 12.269531 8.535156 C 12.347656 8.699219 12.359375 8.882812 12.296875 9.054688 Z M 12.296875 9.054688 "/>
<path style=" stroke:none;fill-rule:nonzero;fill:rgb(49.803922%,54.901961%,55.294118%);fill-opacity:1;" d="M 13.527344 5.53125 C 13.21875 6.414062 12.25 6.882812 11.367188 6.574219 C 10.484375 6.265625 10.015625 5.300781 10.324219 4.417969 C 10.632812 3.53125 11.597656 3.066406 12.480469 3.371094 C 13.367188 3.683594 13.832031 4.648438 13.527344 5.53125 Z M 13.527344 5.53125 "/>
<path style=" stroke:none;fill-rule:nonzero;fill:rgb(69.019608%,82.745098%,94.117647%);fill-opacity:1;" d="M 17.785156 2.035156 C 17.78125 2.40625 17.480469 2.710938 17.105469 2.710938 L 14.96875 2.710938 L 14.210938 1.355469 L 17.105469 1.355469 C 17.480469 1.359375 17.78125 1.660156 17.785156 2.035156 Z M 17.785156 2.035156 "/>
<path style=" stroke:none;fill-rule:nonzero;fill:rgb(27.45098%,30.980392%,36.470588%);fill-opacity:1;" d="M 16.917969 6.398438 C 16.867188 6.425781 16.8125 6.441406 16.753906 6.441406 C 16.648438 6.441406 16.546875 6.394531 16.480469 6.3125 C 16.464844 6.296875 16.453125 6.28125 16.445312 6.261719 L 13.421875 0.765625 L 7.578125 3.011719 L 7.578125 3.015625 L 7.417969 3.078125 C 7.375 3.09375 7.332031 3.101562 7.289062 3.101562 C 7.144531 3.101562 7.015625 3.019531 6.960938 2.886719 C 6.925781 2.804688 6.929688 2.707031 6.964844 2.625 C 7.003906 2.542969 7.074219 2.476562 7.160156 2.449219 L 9.996094 1.355469 L 13.417969 0.0390625 C 13.425781 0.0351562 13.4375 0.03125 13.449219 0.0273438 C 13.457031 0.0234375 13.46875 0.0195312 13.476562 0.015625 C 13.511719 0.0078125 13.546875 0 13.582031 0 C 13.644531 0 13.703125 0.015625 13.757812 0.046875 C 13.785156 0.0625 13.8125 0.0820312 13.835938 0.105469 C 13.855469 0.125 13.871094 0.144531 13.886719 0.167969 C 13.886719 0.171875 13.886719 0.175781 13.890625 0.179688 L 14.539062 1.355469 L 15.285156 2.710938 L 16.035156 4.066406 L 16.78125 5.421875 L 17.066406 5.941406 C 17.109375 6.023438 17.117188 6.117188 17.089844 6.203125 C 17.0625 6.289062 17 6.359375 16.917969 6.398438 Z M 16.917969 6.398438 "/>
</g>
</svg>
