<?xml version="1.0" encoding="UTF-8"?>
<svg xmlns="http://www.w3.org/2000/svg" xmlns:xlink="http://www.w3.org/1999/xlink" width="20pt" height="20pt" viewBox="0 0 20 20" version="1.1">
<g id="surface1">
<path style=" stroke:none;fill-rule:nonzero;fill:rgb(50.196078%,32.54902%,20%);fill-opacity:1;" d="M 9.816406 14.414062 L 9.816406 17.464844 L 0 17.464844 L 0 0.535156 C 0 0.375 0.113281 0.234375 0.273438 0.203125 C 0.429688 0.171875 0.589844 0.253906 0.652344 0.402344 L 3.023438 6.902344 C 3.042969 6.949219 3.078125 6.984375 3.121094 7 L 7.371094 8.636719 C 7.425781 8.65625 7.464844 8.707031 7.476562 8.765625 L 8.128906 12.355469 C 8.132812 12.382812 8.144531 12.410156 8.164062 12.433594 Z M 9.816406 14.414062 "/>
<path style=" stroke:none;fill-rule:nonzero;fill:rgb(90.196078%,90.588235%,90.980392%);fill-opacity:1;" d="M 18.628906 7.878906 L 18.628906 17.464844 L 9.816406 17.464844 L 9.816406 7.875 L 10.589844 7.296875 L 11.335938 6.738281 L 14.222656 4.570312 Z M 18.628906 7.878906 "/>
<path style=" stroke:none;fill-rule:nonzero;fill:rgb(82.352941%,33.72549%,15.294118%);fill-opacity:1;" d="M 11.851562 13.058594 L 12.527344 13.058594 C 12.902344 13.058594 13.207031 13.363281 13.207031 13.738281 L 13.207031 17.464844 L 11.171875 17.464844 L 11.171875 13.738281 C 11.171875 13.363281 11.476562 13.058594 11.851562 13.058594 Z M 11.851562 13.058594 "/>
<path style=" stroke:none;fill-rule:nonzero;fill:rgb(14.117647%,68.235294%,37.254902%);fill-opacity:1;" d="M 19.660156 16.976562 L 19.660156 18.3125 L 0 18.3125 L 0 16.789062 L 19.496094 16.789062 C 19.59375 16.792969 19.667969 16.878906 19.660156 16.976562 Z M 19.660156 16.976562 "/>
<path style=" stroke:none;fill-rule:nonzero;fill:rgb(68.627451%,50.196078%,40%);fill-opacity:1;" d="M 7.722656 3.058594 L 6.578125 4.457031 C 6.511719 4.539062 6.414062 4.585938 6.308594 4.585938 L 4.285156 4.585938 C 4.144531 4.585938 4.015625 4.5 3.964844 4.371094 L 3.414062 3.03125 C 3.378906 2.941406 3.382812 2.839844 3.425781 2.753906 L 3.953125 1.71875 C 4.015625 1.605469 4.132812 1.53125 4.265625 1.535156 L 6.953125 1.535156 C 7.082031 1.53125 7.203125 1.605469 7.261719 1.71875 L 7.757812 2.695312 C 7.820312 2.8125 7.804688 2.957031 7.722656 3.058594 Z M 7.722656 3.058594 "/>
<path style=" stroke:none;fill-rule:nonzero;fill:rgb(50.196078%,32.54902%,20%);fill-opacity:1;" d="M 11.859375 5.921875 L 10.023438 7.296875 L 9.332031 7.296875 C 9.195312 7.296875 9.070312 7.222656 9.007812 7.101562 L 8.511719 6.144531 C 8.4375 5.996094 8.480469 5.816406 8.609375 5.714844 L 9.964844 4.664062 C 10.097656 4.558594 10.289062 4.558594 10.421875 4.664062 L 11.730469 5.675781 C 11.804688 5.734375 11.855469 5.824219 11.859375 5.921875 Z M 11.859375 5.921875 "/>
<path style=" stroke:none;fill-rule:nonzero;fill:rgb(68.627451%,50.196078%,40%);fill-opacity:1;" d="M 12.191406 2.15625 L 11.96875 2.984375 C 11.921875 3.132812 11.785156 3.230469 11.628906 3.230469 L 10.996094 3.230469 C 10.90625 3.230469 10.816406 3.195312 10.75 3.132812 L 9.933594 2.382812 C 9.851562 2.308594 9.816406 2.195312 9.835938 2.089844 L 10.046875 1.117188 C 10.078125 1.007812 10.160156 0.917969 10.265625 0.878906 C 10.371094 0.835938 10.492188 0.847656 10.585938 0.910156 L 12.046875 1.808594 C 12.167969 1.878906 12.226562 2.023438 12.191406 2.15625 Z M 12.191406 2.15625 "/>
<path style=" stroke:none;fill-rule:nonzero;fill:rgb(29.803922%,50.196078%,33.72549%);fill-opacity:1;" d="M 19.660156 18.3125 L 19.660156 19.648438 C 19.667969 19.746094 19.589844 19.832031 19.492188 19.839844 L 0.167969 19.839844 C 0.0703125 19.832031 -0.00390625 19.75 0 19.652344 L 0 18.3125 Z M 19.660156 18.3125 "/>
<path style=" stroke:none;fill-rule:nonzero;fill:rgb(18.431373%,65.882353%,80%);fill-opacity:1;" d="M 15.238281 13.058594 L 16.933594 13.058594 C 17.121094 13.058594 17.273438 13.210938 17.273438 13.398438 L 17.273438 14.753906 C 17.273438 14.941406 17.121094 15.09375 16.933594 15.09375 L 15.238281 15.09375 C 15.054688 15.09375 14.902344 14.941406 14.902344 14.753906 L 14.902344 13.398438 C 14.902344 13.210938 15.054688 13.058594 15.238281 13.058594 Z M 15.238281 13.058594 "/>
<path style=" stroke:none;fill-rule:nonzero;fill:rgb(18.431373%,65.882353%,80%);fill-opacity:1;" d="M 15.238281 9.667969 L 16.933594 9.667969 C 17.121094 9.667969 17.273438 9.820312 17.273438 10.007812 L 17.273438 11.363281 C 17.273438 11.550781 17.121094 11.703125 16.933594 11.703125 L 15.238281 11.703125 C 15.054688 11.703125 14.902344 11.550781 14.902344 11.363281 L 14.902344 10.007812 C 14.902344 9.820312 15.054688 9.667969 15.238281 9.667969 Z M 15.238281 9.667969 "/>
<path style=" stroke:none;fill-rule:nonzero;fill:rgb(18.431373%,65.882353%,80%);fill-opacity:1;" d="M 11.511719 9.667969 L 13.207031 9.667969 C 13.394531 9.667969 13.546875 9.820312 13.546875 10.007812 L 13.546875 11.363281 C 13.546875 11.550781 13.394531 11.703125 13.207031 11.703125 L 11.511719 11.703125 C 11.324219 11.703125 11.171875 11.550781 11.171875 11.363281 L 11.171875 10.007812 C 11.171875 9.820312 11.324219 9.667969 11.511719 9.667969 Z M 11.511719 9.667969 "/>
<path style=" stroke:none;fill-rule:nonzero;fill:rgb(49.803922%,54.901961%,55.294118%);fill-opacity:1;" d="M 12.867188 8.652344 L 10.832031 8.652344 C 10.644531 8.652344 10.496094 8.5 10.496094 8.3125 C 10.496094 8.125 10.644531 7.972656 10.832031 7.972656 L 12.867188 7.972656 C 13.054688 7.972656 13.207031 8.125 13.207031 8.3125 C 13.207031 8.5 13.054688 8.652344 12.867188 8.652344 Z M 12.867188 8.652344 "/>
<path style=" stroke:none;fill-rule:nonzero;fill:rgb(49.803922%,54.901961%,55.294118%);fill-opacity:1;" d="M 16.933594 8.652344 L 14.222656 8.652344 C 14.035156 8.652344 13.882812 8.5 13.882812 8.3125 C 13.882812 8.125 14.035156 7.972656 14.222656 7.972656 L 16.933594 7.972656 C 17.121094 7.972656 17.273438 8.125 17.273438 8.3125 C 17.273438 8.5 17.121094 8.652344 16.933594 8.652344 Z M 16.933594 8.652344 "/>
<path style=" stroke:none;fill-rule:nonzero;fill:rgb(82.352941%,33.72549%,15.294118%);fill-opacity:1;" d="M 19.933594 8.855469 C 19.867188 8.941406 19.765625 8.992188 19.660156 8.992188 C 19.585938 8.992188 19.515625 8.96875 19.457031 8.921875 L 18.628906 8.304688 L 17.539062 7.484375 L 14.222656 4.996094 L 9.003906 8.910156 C 8.90625 8.984375 8.777344 9 8.667969 8.949219 C 8.554688 8.902344 8.476562 8.800781 8.464844 8.679688 C 8.449219 8.558594 8.5 8.441406 8.597656 8.367188 L 10.023438 7.296875 L 11.859375 5.921875 L 14.019531 4.300781 C 14.140625 4.207031 14.308594 4.207031 14.425781 4.300781 L 19.863281 8.382812 C 19.9375 8.433594 19.984375 8.515625 19.996094 8.605469 C 20.007812 8.695312 19.984375 8.785156 19.933594 8.855469 Z M 19.933594 8.855469 "/>
</g>
</svg>
