<?xml version="1.0" encoding="UTF-8"?>
<svg xmlns="http://www.w3.org/2000/svg" xmlns:xlink="http://www.w3.org/1999/xlink" width="20pt" height="20pt" viewBox="0 0 20 20" version="1.1">
<g id="surface1">
<path style=" stroke:none;fill-rule:nonzero;fill:rgb(74.117647%,76.470588%,78.039216%);fill-opacity:1;" d="M 9 5.488281 L 11 5.488281 L 11 8.488281 L 9 8.488281 Z M 9 5.488281 "/>
<path style=" stroke:none;fill-rule:nonzero;fill:rgb(79.607843%,50.980392%,32.156863%);fill-opacity:1;" d="M 0.332031 16.824219 L 19.667969 16.824219 L 19.667969 19.488281 L 0.332031 19.488281 Z M 0.332031 16.824219 "/>
<path style=" stroke:none;fill-rule:nonzero;fill:rgb(50.196078%,32.54902%,20%);fill-opacity:1;" d="M 19.5 16.488281 L 0.5 16.488281 C 0.226562 16.488281 0 16.710938 0 16.988281 L 0 19.324219 C 0 19.601562 0.226562 19.824219 0.5 19.824219 L 19.5 19.824219 C 19.773438 19.824219 20 19.601562 20 19.324219 L 20 16.988281 C 20 16.710938 19.773438 16.488281 19.5 16.488281 Z M 0.667969 19.15625 L 0.667969 18.488281 L 6.332031 18.488281 C 6.515625 18.488281 6.667969 18.339844 6.667969 18.15625 C 6.667969 17.972656 6.515625 17.824219 6.332031 17.824219 L 0.667969 17.824219 L 0.667969 17.15625 L 19.332031 17.15625 L 19.332031 17.824219 L 12.332031 17.824219 C 12.148438 17.824219 12 17.972656 12 18.15625 C 12 18.339844 12.148438 18.488281 12.332031 18.488281 L 19.332031 18.488281 L 19.332031 19.15625 Z M 0.667969 19.15625 "/>
<path style=" stroke:none;fill-rule:nonzero;fill:rgb(50.196078%,32.54902%,20%);fill-opacity:1;" d="M 10.667969 17.824219 L 8 17.824219 C 7.816406 17.824219 7.667969 17.972656 7.667969 18.15625 C 7.667969 18.339844 7.816406 18.488281 8 18.488281 L 10.667969 18.488281 C 10.851562 18.488281 11 18.339844 11 18.15625 C 11 17.972656 10.851562 17.824219 10.667969 17.824219 Z M 10.667969 17.824219 "/>
<path style=" stroke:none;fill-rule:nonzero;fill:rgb(81.960784%,83.137255%,81.960784%);fill-opacity:1;" d="M 16 3.324219 C 16 4.335938 15.179688 5.15625 14.167969 5.15625 C 14.105469 5.15625 14.042969 5.152344 13.984375 5.144531 C 13.992188 5.203125 13.996094 5.265625 14 5.324219 C 14 5.722656 13.84375 6.101562 13.5625 6.382812 C 13.28125 6.664062 12.898438 6.824219 12.5 6.824219 L 7.5 6.824219 C 6.304688 6.824219 5.332031 5.851562 5.332031 4.65625 C 5.332031 4.484375 5.355469 4.3125 5.398438 4.144531 C 4.777344 4.089844 4.308594 3.558594 4.339844 2.933594 C 4.367188 2.3125 4.878906 1.824219 5.5 1.824219 C 5.542969 1.824219 5.585938 1.828125 5.625 1.835938 C 5.703125 1.074219 6.34375 0.492188 7.109375 0.488281 C 7.457031 0.488281 7.792969 0.613281 8.054688 0.835938 C 8.179688 0.46875 8.503906 0.203125 8.890625 0.164062 C 9.277344 0.121094 9.652344 0.304688 9.851562 0.640625 C 10.113281 0.539062 10.386719 0.488281 10.667969 0.488281 C 11.117188 0.488281 11.5625 0.621094 11.941406 0.871094 C 12.230469 0.53125 12.695312 0.40625 13.117188 0.546875 C 13.539062 0.691406 13.828125 1.074219 13.851562 1.519531 C 13.957031 1.5 14.0625 1.488281 14.167969 1.488281 C 15.179688 1.488281 16 2.308594 16 3.324219 Z M 16 3.324219 "/>
<path style=" stroke:none;fill-rule:nonzero;fill:rgb(64.705882%,64.705882%,64.313725%);fill-opacity:1;" d="M 8.332031 4.824219 C 8.148438 4.824219 8 4.972656 8 5.15625 C 8 5.339844 8.148438 5.488281 8.332031 5.488281 C 8.515625 5.488281 8.667969 5.640625 8.667969 5.824219 L 8.667969 8.15625 C 8.667969 8.339844 8.816406 8.488281 9 8.488281 C 9.183594 8.488281 9.332031 8.339844 9.332031 8.15625 L 9.332031 5.824219 C 9.332031 5.269531 8.886719 4.824219 8.332031 4.824219 Z M 8.332031 4.824219 "/>
<path style=" stroke:none;fill-rule:nonzero;fill:rgb(64.705882%,64.705882%,64.313725%);fill-opacity:1;" d="M 11.667969 4.824219 C 11.113281 4.824219 10.667969 5.269531 10.667969 5.824219 L 10.667969 8.15625 C 10.667969 8.339844 10.816406 8.488281 11 8.488281 C 11.183594 8.488281 11.332031 8.339844 11.332031 8.15625 L 11.332031 5.824219 C 11.332031 5.640625 11.484375 5.488281 11.667969 5.488281 C 11.851562 5.488281 12 5.339844 12 5.15625 C 12 4.972656 11.851562 4.824219 11.667969 4.824219 Z M 11.667969 4.824219 "/>
<path style=" stroke:none;fill-rule:nonzero;fill:rgb(64.705882%,64.705882%,64.313725%);fill-opacity:1;" d="M 7.667969 2.824219 C 7.113281 2.824219 6.667969 3.269531 6.667969 3.824219 C 6.667969 4.007812 6.816406 4.15625 7 4.15625 C 7.183594 4.15625 7.332031 4.007812 7.332031 3.824219 C 7.332031 3.640625 7.484375 3.488281 7.667969 3.488281 C 7.851562 3.488281 8 3.339844 8 3.15625 C 8 2.972656 7.851562 2.824219 7.667969 2.824219 Z M 7.667969 2.824219 "/>
<path style=" stroke:none;fill-rule:nonzero;fill:rgb(64.705882%,64.705882%,64.313725%);fill-opacity:1;" d="M 9.667969 2.15625 C 9.484375 2.15625 9.332031 2.304688 9.332031 2.488281 C 9.332031 2.671875 9.484375 2.824219 9.667969 2.824219 C 9.851562 2.824219 10 2.972656 10 3.15625 C 10 3.339844 10.148438 3.488281 10.332031 3.488281 C 10.515625 3.488281 10.667969 3.339844 10.667969 3.15625 C 10.667969 2.605469 10.21875 2.15625 9.667969 2.15625 Z M 9.667969 2.15625 "/>
<path style=" stroke:none;fill-rule:nonzero;fill:rgb(64.705882%,64.705882%,64.313725%);fill-opacity:1;" d="M 13.707031 2.921875 C 13.3125 2.542969 12.6875 2.542969 12.292969 2.921875 C 12.207031 3.003906 12.175781 3.128906 12.207031 3.242188 C 12.238281 3.359375 12.328125 3.449219 12.441406 3.476562 C 12.558594 3.507812 12.679688 3.476562 12.765625 3.390625 C 12.894531 3.265625 13.105469 3.265625 13.234375 3.390625 C 13.320312 3.476562 13.441406 3.507812 13.558594 3.476562 C 13.671875 3.449219 13.761719 3.359375 13.792969 3.242188 C 13.824219 3.128906 13.792969 3.003906 13.707031 2.921875 Z M 13.707031 2.921875 "/>
<path style=" stroke:none;fill-rule:nonzero;fill:rgb(50.196078%,32.54902%,20%);fill-opacity:1;" d="M 19 16.824219 C 19 16.824219 13.480469 13.578125 11.414062 8.367188 C 11.363281 8.238281 11.242188 8.15625 11.109375 8.15625 L 8.890625 8.15625 C 8.757812 8.15625 8.636719 8.238281 8.585938 8.367188 C 6.519531 13.578125 1 16.824219 1 16.824219 Z M 19 16.824219 "/>
<path style=" stroke:none;fill-rule:nonzero;fill:rgb(79.607843%,50.980392%,32.156863%);fill-opacity:1;" d="M 7.332031 15.824219 C 7.203125 15.824219 7.082031 15.746094 7.027344 15.625 C 6.976562 15.507812 6.996094 15.367188 7.085938 15.269531 C 7.8125 14.453125 8.472656 13.578125 9.050781 12.648438 C 9.109375 12.539062 9.222656 12.476562 9.347656 12.476562 C 9.46875 12.480469 9.582031 12.546875 9.636719 12.65625 C 9.695312 12.765625 9.6875 12.894531 9.617188 12.996094 C 9.019531 13.960938 8.339844 14.867188 7.585938 15.710938 C 7.519531 15.78125 7.429688 15.824219 7.332031 15.824219 Z M 7.332031 15.824219 "/>
<path style=" stroke:none;fill-rule:nonzero;fill:rgb(79.607843%,50.980392%,32.156863%);fill-opacity:1;" d="M 12.667969 15.824219 C 12.570312 15.824219 12.480469 15.78125 12.417969 15.710938 C 11.664062 14.867188 10.984375 13.960938 10.382812 12.996094 C 10.316406 12.894531 10.308594 12.765625 10.363281 12.65625 C 10.421875 12.546875 10.53125 12.480469 10.65625 12.476562 C 10.777344 12.476562 10.890625 12.539062 10.949219 12.648438 C 11.53125 13.578125 12.1875 14.453125 12.917969 15.269531 C 13.003906 15.367188 13.027344 15.507812 12.972656 15.625 C 12.917969 15.746094 12.796875 15.824219 12.667969 15.824219 Z M 12.667969 15.824219 "/>
<path style=" stroke:none;fill-rule:nonzero;fill:rgb(79.607843%,50.980392%,32.156863%);fill-opacity:1;" d="M 15.03125 15.824219 C 14.945312 15.824219 14.867188 15.792969 14.804688 15.734375 C 12.972656 14.113281 11.464844 12.15625 10.367188 9.96875 C 10.296875 9.804688 10.371094 9.613281 10.53125 9.539062 C 10.6875 9.460938 10.882812 9.523438 10.964844 9.679688 C 12.027344 11.792969 13.484375 13.679688 15.253906 15.246094 C 15.355469 15.339844 15.386719 15.484375 15.339844 15.609375 C 15.289062 15.738281 15.167969 15.820312 15.03125 15.824219 Z M 15.03125 15.824219 "/>
<path style=" stroke:none;fill-rule:nonzero;fill:rgb(79.607843%,50.980392%,32.156863%);fill-opacity:1;" d="M 4.96875 15.824219 C 4.832031 15.824219 4.707031 15.738281 4.660156 15.609375 C 4.609375 15.480469 4.644531 15.335938 4.746094 15.242188 C 6.515625 13.679688 7.972656 11.789062 9.035156 9.679688 C 9.082031 9.566406 9.1875 9.488281 9.308594 9.476562 C 9.433594 9.464844 9.550781 9.523438 9.617188 9.625 C 9.6875 9.726562 9.691406 9.859375 9.632812 9.96875 C 8.535156 12.15625 7.027344 14.113281 5.195312 15.734375 C 5.132812 15.792969 5.054688 15.824219 4.96875 15.824219 Z M 4.96875 15.824219 "/>
</g>
</svg>
