<?xml version="1.0" encoding="UTF-8"?>
<svg xmlns="http://www.w3.org/2000/svg" xmlns:xlink="http://www.w3.org/1999/xlink" width="20pt" height="20pt" viewBox="0 0 20 20" version="1.1">
<g id="surface1">
<path style=" stroke:none;fill-rule:nonzero;fill:rgb(50.196078%,32.54902%,20%);fill-opacity:1;" d="M 7.433594 7.984375 C 6.800781 8.652344 5.832031 9.671875 4.421875 11.1875 C 4.363281 11.253906 4.277344 11.292969 4.191406 11.296875 L 3.578125 11.332031 C 3.429688 11.339844 3.296875 11.253906 3.242188 11.117188 L 2.734375 9.828125 C 2.683594 9.695312 2.71875 9.546875 2.820312 9.453125 C 4.175781 8.1875 5.132812 7.285156 5.785156 6.660156 C 5.871094 6.957031 6.03125 7.230469 6.25 7.445312 C 6.566406 7.765625 6.988281 7.957031 7.433594 7.984375 Z M 7.433594 7.984375 "/>
<path style=" stroke:none;fill-rule:nonzero;fill:rgb(50.196078%,32.54902%,20%);fill-opacity:1;" d="M 3.023438 16.429688 L 0.363281 16.429688 C 0.417969 14.992188 0.460938 14.097656 0.496094 13.042969 C 0.492188 12.929688 0.550781 12.820312 0.648438 12.757812 C 0.746094 12.695312 0.867188 12.683594 0.972656 12.730469 L 1.84375 13.136719 C 1.960938 13.191406 2.097656 13.171875 2.195312 13.089844 L 2.347656 12.960938 C 2.449219 12.878906 2.589844 12.863281 2.707031 12.917969 C 2.824219 12.972656 2.902344 13.09375 2.902344 13.222656 C 2.9375 14.203125 2.976562 15.074219 3.023438 16.429688 Z M 3.023438 16.429688 "/>
<path style=" stroke:none;fill-rule:nonzero;fill:rgb(29.803922%,50.196078%,33.72549%);fill-opacity:1;" d="M 13.101562 7.566406 C 12.039062 8.625 10.320312 8.625 9.257812 7.566406 C 9.171875 7.480469 9.09375 7.390625 9.023438 7.296875 C 8.984375 7.347656 8.941406 7.394531 8.894531 7.445312 C 8.164062 8.171875 6.984375 8.171875 6.25 7.445312 C 6.03125 7.230469 5.871094 6.957031 5.785156 6.660156 C 5.597656 6.035156 5.75 5.355469 6.191406 4.871094 C 6.035156 4.789062 5.894531 4.683594 5.773438 4.554688 C 5.121094 3.90625 5.039062 2.882812 5.578125 2.136719 C 6.117188 1.390625 7.117188 1.148438 7.9375 1.5625 C 8.011719 1.238281 8.179688 0.941406 8.417969 0.707031 C 9.015625 0.105469 9.945312 -0.0195312 10.679688 0.410156 C 11.414062 0.835938 11.765625 1.707031 11.535156 2.523438 C 11.5 2.664062 11.445312 2.796875 11.375 2.921875 L 11.375 2.925781 C 11.425781 2.929688 11.476562 2.933594 11.527344 2.9375 C 11.554688 2.941406 11.582031 2.945312 11.609375 2.953125 C 11.679688 2.960938 11.75 2.976562 11.820312 2.992188 C 11.839844 2.996094 11.859375 3 11.878906 3.007812 C 12.816406 3.257812 13.550781 3.992188 13.804688 4.933594 C 14.054688 5.871094 13.789062 6.875 13.101562 7.566406 Z M 13.101562 7.566406 "/>
<path style=" stroke:none;fill-rule:nonzero;fill:rgb(90.196078%,90.588235%,90.980392%);fill-opacity:1;" d="M 14.578125 17.109375 L 12.542969 17.109375 L 12.542969 11.648438 C 12.613281 11.609375 12.683594 11.5625 12.746094 11.511719 L 12.757812 11.5 L 12.761719 11.5 L 12.988281 11.308594 L 13.53125 10.847656 C 13.535156 10.847656 13.535156 10.84375 13.535156 10.84375 L 15.59375 9.105469 L 18.644531 11.683594 L 18.644531 17.109375 Z M 14.578125 17.109375 "/>
<path style=" stroke:none;fill-rule:nonzero;fill:rgb(69.411765%,56.470588%,27.45098%);fill-opacity:1;" d="M 16.609375 15.414062 L 16.609375 16.429688 L 14.578125 16.429688 L 14.578125 15.414062 C 14.578125 15.039062 14.878906 14.734375 15.253906 14.734375 L 15.933594 14.734375 C 16.304688 14.734375 16.609375 15.039062 16.609375 15.414062 Z M 16.609375 15.414062 "/>
<path style=" stroke:none;fill-rule:nonzero;fill:rgb(18.431373%,65.882353%,80%);fill-opacity:1;" d="M 16.609375 12.363281 C 16.609375 12.921875 16.15625 13.378906 15.59375 13.378906 C 15.03125 13.378906 14.578125 12.921875 14.578125 12.363281 C 14.578125 11.800781 15.03125 11.34375 15.59375 11.34375 C 16.15625 11.34375 16.609375 11.800781 16.609375 12.363281 Z M 16.609375 12.363281 "/>
<path style=" stroke:none;fill-rule:nonzero;fill:rgb(69.411765%,56.470588%,27.45098%);fill-opacity:1;" d="M 19.917969 12.921875 C 19.855469 12.996094 19.761719 13.039062 19.660156 13.039062 C 19.582031 13.039062 19.503906 13.011719 19.441406 12.957031 L 18.644531 12.285156 L 15.59375 9.703125 L 13.535156 11.441406 C 13.535156 11.445312 13.535156 11.445312 13.53125 11.445312 L 12.988281 11.90625 L 12.761719 12.101562 L 12.757812 12.101562 L 12.746094 12.109375 C 12.320312 12.464844 11.707031 12.457031 11.289062 12.097656 C 11.066406 11.902344 10.933594 11.628906 10.914062 11.335938 C 10.898438 11.039062 10.996094 10.75 11.191406 10.53125 C 11.273438 10.433594 11.398438 10.386719 11.519531 10.410156 C 11.644531 10.433594 11.746094 10.523438 11.78125 10.644531 C 11.820312 10.761719 11.785156 10.894531 11.699219 10.980469 C 11.621094 11.066406 11.585938 11.179688 11.59375 11.289062 C 11.601562 11.457031 11.703125 11.601562 11.855469 11.664062 C 12.007812 11.730469 12.183594 11.703125 12.308594 11.597656 L 12.757812 11.214844 L 13.808594 10.324219 C 13.683594 10.269531 13.570312 10.191406 13.472656 10.097656 C 13.046875 9.660156 13.046875 8.964844 13.472656 8.527344 L 13.945312 8.054688 C 14.078125 7.921875 14.292969 7.921875 14.425781 8.054688 C 14.558594 8.1875 14.558594 8.402344 14.425781 8.535156 L 13.957031 9.007812 C 13.832031 9.128906 13.792969 9.3125 13.859375 9.476562 C 13.925781 9.636719 14.082031 9.742188 14.257812 9.746094 C 14.347656 9.746094 14.4375 9.714844 14.511719 9.660156 L 15.257812 9.101562 L 15.265625 9.089844 L 15.269531 9.089844 L 15.273438 9.085938 C 15.277344 9.085938 15.28125 9.085938 15.285156 9.082031 C 15.472656 8.933594 15.738281 8.9375 15.921875 9.089844 L 19.882812 12.441406 C 19.949219 12.5 19.992188 12.585938 20 12.675781 C 20.007812 12.765625 19.976562 12.851562 19.917969 12.921875 Z M 19.917969 12.921875 "/>
<path style=" stroke:none;fill-rule:nonzero;fill:rgb(69.019608%,82.745098%,94.117647%);fill-opacity:1;" d="M 16.269531 1.34375 C 16.269531 2 15.738281 2.53125 15.085938 2.53125 L 11.597656 2.53125 C 11.574219 2.53125 11.554688 2.527344 11.535156 2.523438 C 11.597656 2.304688 11.617188 2.078125 11.597656 1.851562 L 15.085938 1.851562 C 15.367188 1.851562 15.59375 1.625 15.59375 1.34375 C 15.59375 1.0625 15.367188 0.835938 15.085938 0.835938 L 14.578125 0.835938 C 14.390625 0.835938 14.238281 0.683594 14.238281 0.496094 C 14.238281 0.308594 14.390625 0.160156 14.578125 0.160156 L 15.085938 0.160156 C 15.398438 0.15625 15.703125 0.28125 15.925781 0.503906 C 16.148438 0.726562 16.273438 1.03125 16.269531 1.34375 Z M 16.269531 1.34375 "/>
<path style=" stroke:none;fill-rule:nonzero;fill:rgb(69.019608%,82.745098%,94.117647%);fill-opacity:1;" d="M 18.8125 4.269531 L 15.253906 4.269531 C 15.066406 4.269531 14.914062 4.117188 14.914062 3.929688 C 14.914062 3.742188 15.066406 3.589844 15.253906 3.589844 L 18.8125 3.589844 C 19.09375 3.589844 19.320312 3.363281 19.320312 3.082031 C 19.320312 2.800781 19.09375 2.574219 18.8125 2.574219 L 18.304688 2.574219 C 18.117188 2.574219 17.964844 2.421875 17.964844 2.234375 C 17.964844 2.046875 18.117188 1.894531 18.304688 1.894531 L 18.8125 1.894531 C 19.46875 1.894531 20 2.425781 20 3.082031 C 20 3.738281 19.46875 4.269531 18.8125 4.269531 Z M 18.8125 4.269531 "/>
<path style=" stroke:none;fill-rule:nonzero;fill:rgb(29.803922%,50.196078%,33.72549%);fill-opacity:1;" d="M 19.660156 16.597656 L 19.660156 19.652344 C 19.660156 19.699219 19.644531 19.742188 19.609375 19.773438 C 19.578125 19.804688 19.535156 19.820312 19.492188 19.820312 L 0.167969 19.820312 C 0.125 19.820312 0.0820312 19.804688 0.0507812 19.773438 C 0.0195312 19.742188 0 19.699219 0 19.652344 L 0 16.597656 C 0 16.550781 0.0195312 16.507812 0.0507812 16.476562 C 0.0820312 16.445312 0.125 16.429688 0.167969 16.429688 L 19.492188 16.429688 C 19.535156 16.429688 19.578125 16.445312 19.609375 16.476562 C 19.644531 16.507812 19.660156 16.550781 19.660156 16.597656 Z M 19.660156 16.597656 "/>
<path style=" stroke:none;fill-rule:nonzero;fill:rgb(14.117647%,68.235294%,37.254902%);fill-opacity:1;" d="M 19.660156 16.597656 L 19.660156 18.125 L 0 18.125 L 0 16.597656 C 0 16.550781 0.0195312 16.507812 0.0507812 16.476562 C 0.0820312 16.445312 0.125 16.429688 0.167969 16.429688 L 19.492188 16.429688 C 19.535156 16.429688 19.578125 16.445312 19.609375 16.476562 C 19.644531 16.507812 19.660156 16.550781 19.660156 16.597656 Z M 19.660156 16.597656 "/>
</g>
</svg>
